<svg viewBox="0 0 32 34" xmlns="http://www.w3.org/2000/svg" xmlns:xlink="http://www.w3.org/1999/xlink"><style>:root&gt;svg{display:none}:root&gt;svg:target{display:block}</style><svg fill="none" viewBox="0 0 32 34" id="arrow-dotted-up" xmlns="http://www.w3.org/2000/svg"><path d="M28 0l-2.492 5.208 5.756-.446L28 0zM0 33.5a40.6 40.6 0 001.055-.014l-.026-1c-.342.01-.685.014-1.029.014v1zm3.157-.124a36.489 36.489 0 002.098-.229l-.138-.99c-.672.093-1.352.167-2.04.222l.08.997zm4.177-.582a31.93 31.93 0 002.056-.486l-.262-.965c-.653.178-1.318.334-1.992.47l.198.98zm4.076-1.111a27.87 27.87 0 001.971-.772l-.4-.916c-.62.27-1.253.518-1.9.744l.33.944zm3.879-1.695a25.185 25.185 0 001.827-1.078l-.544-.839c-.569.369-1.154.714-1.755 1.035l.472.882zm3.556-2.309a23.615 23.615 0 001.614-1.38l-.684-.73c-.496.465-1.012.905-1.545 1.322l.615.788zm3.096-2.901c.467-.526.914-1.075 1.34-1.65l-.805-.595c-.407.55-.835 1.077-1.282 1.58l.747.665zm2.524-3.41c.365-.596.709-1.215 1.03-1.857l-.894-.448a24.14 24.14 0 01-.989 1.784l.853.521zm1.901-3.785c.26-.643.5-1.306.72-1.99l-.953-.305c-.211.66-.443 1.3-.694 1.92l.927.375zm1.295-4.027c.165-.671.31-1.36.437-2.065l-.984-.177a32.198 32.198 0 01-.424 2.003l.97.239zm.748-4.148c.082-.683.146-1.381.194-2.095l-.998-.066c-.046.696-.11 1.377-.19 2.042l.994.12zm.281-4.196a47.71 47.71 0 00-.01-2.102l-1 .027c.019.7.022 1.385.01 2.057l1 .018z" fill="#000"/></svg></svg>