<svg width="32" height="34" viewBox="0 0 32 34" fill="none" xmlns="http://www.w3.org/2000/svg">
<path d="M28 0L25.5075 5.20774L31.2638 4.76248L28 0ZM0 33.5C0.352888 33.5 0.704485 33.4955 1.05467 33.4864L1.02878 32.4867C0.687318 32.4956 0.344352 32.5 0 32.5V33.5ZM3.15678 33.3756C3.86331 33.319 4.56291 33.2429 5.25452 33.147L5.11725 32.1565C4.44516 32.2497 3.76471 32.3237 3.0769 32.3788L3.15678 33.3756ZM7.33414 32.7939C8.0295 32.6535 8.7153 32.4917 9.39036 32.3082L9.12813 31.3432C8.47485 31.5207 7.81049 31.6775 7.13611 31.8138L7.33414 32.7939ZM11.4104 31.6828C12.0803 31.4489 12.7377 31.1918 13.3813 30.9112L12.9816 29.9946C12.3616 30.2649 11.7276 30.5129 11.0808 30.7387L11.4104 31.6828ZM15.2889 29.9879C15.914 29.6536 16.5234 29.2946 17.1157 28.9105L16.5716 28.0714C16.0033 28.4399 15.4182 28.7847 14.8173 29.1061L15.2889 29.9879ZM18.8448 27.6792C19.4018 27.2444 19.9402 26.7842 20.4587 26.2985L19.775 25.5687C19.2786 26.0337 18.763 26.4744 18.2295 26.8909L18.8448 27.6792ZM21.9411 24.7775C22.4083 24.2524 22.8551 23.7026 23.2802 23.1279L22.4763 22.5332C22.069 23.0837 21.6412 23.6102 21.194 24.1128L21.9411 24.7775ZM24.4651 21.3685C24.8299 20.7722 25.1736 20.153 25.4954 19.5108L24.6013 19.0629C24.292 19.6802 23.9619 20.2747 23.612 20.8467L24.4651 21.3685ZM26.3661 17.5827C26.6264 16.9398 26.8665 16.2766 27.0856 15.5931L26.1333 15.2878C25.9217 15.9482 25.69 16.588 25.4392 17.2074L26.3661 17.5827ZM27.6607 13.5557C27.8256 12.885 27.9716 12.1966 28.0983 11.4905L27.114 11.314C26.991 11.9998 26.8493 12.6674 26.6896 13.317L27.6607 13.5557ZM28.4087 9.4084C28.4906 8.72521 28.5554 8.02677 28.6027 7.31298L27.6049 7.24687C27.5588 7.94342 27.4955 8.62419 27.4158 9.28934L28.4087 9.4084ZM28.69 5.21172C28.7021 4.52454 28.6987 3.82413 28.6795 3.1104L27.6799 3.13727C27.6987 3.83657 27.7019 4.52216 27.6901 5.19417L28.69 5.21172Z" fill="black"/>
</svg>
